<?xml version="1.0" encoding="utf-8"?>
<!-- Generator: Adobe Illustrator 21.1.0, SVG Export Plug-In . SVG Version: 6.00 Build 0)  -->
<svg version="1.1" id="Layer_1" xmlns="http://www.w3.org/2000/svg" xmlns:xlink="http://www.w3.org/1999/xlink" x="0px" y="0px"
	 viewBox="0 0 35 35" style="enable-background:new 0 0 35 35;" xml:space="preserve">
<style type="text/css">
	.st0{fill:#003082;}
</style>
<g>
	<g>
		<g>
			<path class="st0" d="M18.2,20.3c-3.5,0-6.4-3.2-6.4-7.2v-1.6c0-4,2.9-7.2,6.4-7.2s6.4,3.2,6.4,7.2v1.6
				C24.5,17.1,21.7,20.3,18.2,20.3z M18.2,6c-2.7,0-4.8,2.5-4.8,5.6v1.6c0,3,2.1,5.6,4.8,5.6c2.7,0,4.8-2.5,4.8-5.6v-1.6
				C22.9,8.5,20.9,6,18.2,6z"/>
		</g>
	</g>
	<g>
		<g>
			<path class="st0" d="M18.9,34.6H4.6v-4.8c0-3.8,3.2-8.3,7.2-8.3c0.5,0,0.8,0.3,0.8,0.8c0,0.5-0.3,0.8-0.8,0.8
				c-3,0-5.6,3.7-5.6,6.7v3.2h12.7c0.5,0,0.8,0.3,0.8,0.8S19.4,34.6,18.9,34.6z"/>
		</g>
	</g>
	<g>
		<g>
			<path class="st0" d="M31.7,34.6H17.4c-0.5,0-0.8-0.3-0.8-0.8s0.3-0.8,0.8-0.8h12.7v-3.2c0-3-2.5-6.7-5.6-6.7
				c-0.5,0-0.8-0.3-0.8-0.8c0-0.5,0.3-0.8,0.8-0.8c4,0,7.2,4.5,7.2,8.3V34.6z"/>
		</g>
	</g>
</g>
</svg>
