<?xml version="1.0" encoding="utf-8"?>
<!-- Generator: Adobe Illustrator 21.1.0, SVG Export Plug-In . SVG Version: 6.00 Build 0)  -->
<svg version="1.1" id="Laag_1" xmlns="http://www.w3.org/2000/svg" xmlns:xlink="http://www.w3.org/1999/xlink" x="0px" y="0px"
	 viewBox="0 0 841.9 595.3" style="enable-background:new 0 0 841.9 595.3;" xml:space="preserve">
<style type="text/css">
	.st0{fill:none;stroke:#213A72;stroke-width:10;stroke-miterlimit:10;}
	.st1{fill:none;stroke:#628FC4;stroke-width:10;stroke-miterlimit:10;}
</style>
<polygon class="st0" points="116.5,230.3 131.5,260.7 165,265.5 140.7,289.2 146.5,322.5 116.5,306.8 86.5,322.5 92.2,289.2 
	68,265.5 101.5,260.7 "/>
<polygon class="st1" points="725.4,230.3 740.4,260.7 773.9,265.5 749.7,289.2 755.4,322.5 725.4,306.8 695.4,322.5 701.2,289.2 
	676.9,265.5 710.4,260.7 "/>
<polygon class="st0" points="573.2,230.3 588.2,260.7 621.7,265.5 597.4,289.2 603.1,322.5 573.2,306.8 543.2,322.5 548.9,289.2 
	524.7,265.5 558.2,260.7 "/>
<polygon class="st0" points="420.9,230.3 435.9,260.7 469.4,265.5 445.2,289.2 450.9,322.5 420.9,306.8 391,322.5 396.7,289.2 
	372.5,265.5 406,260.7 "/>
<polygon class="st0" points="268.7,230.3 283.7,260.7 317.2,265.5 293,289.2 298.7,322.5 268.7,306.8 238.7,322.5 244.5,289.2 
	220.2,265.5 253.7,260.7 "/>
</svg>
