<?xml version="1.0" encoding="utf-8"?>
<!-- Generator: Adobe Illustrator 21.1.0, SVG Export Plug-In . SVG Version: 6.00 Build 0)  -->
<svg version="1.1" id="Laag_1" xmlns="http://www.w3.org/2000/svg" xmlns:xlink="http://www.w3.org/1999/xlink" x="0px" y="0px"
	 viewBox="0 0 841.9 595.3" style="enable-background:new 0 0 841.9 595.3;" xml:space="preserve">
<style type="text/css">
	.st0{fill:#F6E81D;stroke:#F6E81D;stroke-width:4;stroke-miterlimit:10;}
	.st1{fill:none;stroke:#F6E81D;stroke-width:4;stroke-miterlimit:10;}
</style>
<polygon class="st0" points="140,162.7 145,172.9 156.2,174.5 148.1,182.5 150,193.6 140,188.4 129.9,193.6 131.9,182.5 
	123.7,174.5 135,172.9 "/>
<polygon class="st1" points="344,162.7 349.1,172.9 360.3,174.5 352.2,182.5 354.1,193.6 344,188.4 334,193.6 335.9,182.5 
	327.8,174.5 339,172.9 "/>
<polygon class="st1" points="293,162.7 298.1,172.9 309.3,174.5 301.2,182.5 303.1,193.6 293,188.4 283,193.6 284.9,182.5 
	276.8,174.5 288,172.9 "/>
<polygon class="st0" points="242,162.7 247,172.9 258.3,174.5 250.1,182.5 252.1,193.6 242,188.4 232,193.6 233.9,182.5 
	225.8,174.5 237,172.9 "/>
<polygon class="st0" points="191,162.7 196,172.9 207.2,174.5 199.1,182.5 201,193.6 191,188.4 181,193.6 182.9,182.5 174.7,174.5 
	186,172.9 "/>
</svg>
